<svg width="30" height="30" viewBox="0 0 30 30" fill="none" xmlns="http://www.w3.org/2000/svg">
<g id="icons8-search 1">
<path id="Vector" d="M12.6 1.79999C6.97268 1.79999 2.40002 6.37264 2.40002 12C2.40002 17.6273 6.97268 22.2 12.6 22.2C14.8266 22.2 16.8844 21.4828 18.5625 20.2687L26.4563 28.1437L28.1438 26.4562L20.3438 18.6375C21.8766 16.8516 22.8 14.5336 22.8 12C22.8 6.37264 18.2274 1.79999 12.6 1.79999ZM12.6 2.99999C17.5781 2.99999 21.6 7.02186 21.6 12C21.6 16.9781 17.5781 21 12.6 21C7.6219 21 3.60002 16.9781 3.60002 12C3.60002 7.02186 7.6219 2.99999 12.6 2.99999Z" fill="#D4D4D4" fill-opacity="0.81"/>
</g>
</svg>
